<?xml version="1.0" encoding="UTF-8"?><svg id="Layer_1" xmlns="http://www.w3.org/2000/svg" viewBox="0 0 512 512"><defs><style>.cls-1,.cls-2,.cls-3{stroke-width:0px;}.cls-2{fill:#fff;}.cls-3{fill:#582bac;}</style></defs><path class="cls-1" d="m256,512h0C114.61,512,0,397.39,0,256H0C0,114.62,114.61,0,256,0h0c141.38,0,256,114.62,256,256h0c0,141.38-114.61,256-256,256Z"/><path class="cls-3" d="m256,482.99h0c-125.36,0-226.99-101.63-226.99-226.99h0c0-125.36,101.63-226.99,226.99-226.99h0c125.36,0,226.99,101.63,226.99,226.99h0c0,125.36-101.63,226.99-226.99,226.99Z"/><path class="cls-2" d="m116.08,234.4l-.02.13-.03.17c-.04.24-.08.49-.11.73v.04s0,0,0,0c0,.05-.01.09-.02.14-.02.14-.04.29-.06.44l-.06.38v.07s-.03.11-.03.11h0s0,.07,0,.07v.06s-.02.03-.02.03v.12s-.02.09-.02.09v.02s-.02.06-.02.06c-.06.46-.12.94-.18,1.41-.05.42-.1.84-.14,1.27-.02.16-.04.32-.05.48h0s0,.04,0,.04h0c-.06.52-.11,1.04-.17,1.55-.04.38-.07.77-.11,1.16v.04l-.04.38c-.02.15-.03.3-.04.46-.01.16-.03.32-.04.48,0,.08-.01.17-.02.25-.01.12-.02.25-.03.37-.01.16-.02.31-.03.46,0,.07,0,.14-.01.22-.05.53-.08,1.07-.11,1.71h0s0,.02,0,.02v.02c-.02.27-.03.54-.04.8-.02.28-.03.56-.04.84v.03s0,.03,0,.03v.06s0,.06,0,.09c0,.06,0,.12,0,.19v.08h0s0,.02,0,.02v.09c-.02.32-.03.63-.04.95,0,.14-.01.27-.02.41-.02.58-.04,1.12-.05,1.68,0,.08,0,.18,0,.27v.19c-.02.46-.02.91-.02,1.36v.26s0,.12,0,.12h0v.48c0,.14,0,.28,0,.41,0,.1,0,.2,0,.29s0,.2,0,.29c0,.14,0,.27,0,.41v.83c.4,26.92,11.19,52.17,30.38,71.09,19.2,18.94,44.64,29.37,71.62,29.37,4.29,0,8.54-.28,12.74-.8,1.91-.24,3.81-.51,5.69-.85,0,0,0,0,0,0-13.96-8.44-26.04-19.74-35.52-33.33-3.44-4.93-6.47-10.07-9.09-15.4-.59-1.2-1.15-2.41-1.7-3.63-.06-.13-.13-.26-.19-.4-6.62-14.87-10.06-31.01-10.06-47.59,0-24.12,7.27-47.3,21.03-67.01,3.16-4.53,6.62-8.8,10.33-12.79,12.06-13.01,26.88-23.1,43.56-29.57,5.06-1.96,10.22-3.55,15.46-4.78,8.74-2.05,17.72-3.09,26.84-3.09,21.31,0,41.77,5.66,59.65,16.26,0,0,0,0,0,0,0-.01-.02-.02-.03-.03-.16-.16-.34-.33-.5-.5-.22-.22-.45-.43-.68-.65-.07-.07-.14-.13-.21-.2h0s-.05-.05-.05-.05l-.02-.02-.03-.04c-.19-.18-.41-.38-.62-.57-.22-.21-.42-.41-.66-.61l-.02-.03-.02-.03-.05-.05s-.07-.07-.11-.1c-.25-.23-.5-.46-.75-.69l-.05-.05-.33-.3c-.06-.05-.11-.1-.16-.15-.36-.33-.72-.66-1.08-.97-.41-.37-.81-.71-1.2-1.05-.12-.11-.26-.22-.39-.33-.27-.23-.54-.47-.82-.7l-.55-.46-.3-.25v-.02s-.23-.18-.23-.18l-.11-.09c-.33-.27-.64-.53-.96-.78l-.05-.04-.02-.02-.03-.02-.04-.03c-.24-.2-.48-.39-.72-.58h0s-.02-.02-.02-.02h-.02s-.01-.02-.01-.02c-.76-.62-1.56-1.24-2.36-1.85l-.02-.02-.02-.02c-.21-.17-.43-.33-.65-.5l-.26-.2-.16-.12s-.07-.05-.11-.08c-.01,0-.02-.02-.04-.03h0s-.03-.03-.03-.03h-.02s-.04-.04-.04-.04l-.45-.33-.16-.12-.61-.45c-.06-.05-.13-.09-.19-.14-.12-.08-.23-.17-.35-.25l-.24-.18h0s-.01-.02-.01-.02h-.01s-.02-.02-.02-.02c-.24-.18-.48-.35-.72-.52-.06-.04-.11-.08-.17-.12l-.07-.05-.06-.04c-.59-.41-1.17-.82-1.77-1.23h-.02s0-.01,0-.01h-.02c-.26-.2-.53-.38-.8-.56-.06-.04-.13-.09-.19-.13h0s-.02-.02-.02-.02c-.4-.26-.8-.53-1.2-.79-.02-.01-.04-.03-.07-.04h0s-.03-.02-.03-.02l-.04-.02c-.09-.06-.17-.11-.26-.17-.29-.19-.58-.38-.86-.56l-.05-.03h0s-.04-.03-.04-.03c-.43-.28-.86-.55-1.3-.82l-.04-.03h0s-.06-.04-.06-.04c-.44-.28-.89-.56-1.35-.83l-.72-.43h0c-.11-.08-.22-.14-.33-.2-.14-.08-.27-.16-.41-.24h-.03s0-.02,0-.02h0s-.02-.01-.02-.01c-.08-.05-.17-.1-.25-.15-.32-.19-.65-.37-.97-.56l-.24-.14c-.11-.07-.22-.13-.33-.19-.3-.17-.6-.35-.9-.52-.03-.02-.06-.03-.09-.05-2.01-1.12-4.06-2.2-6.11-3.23-.05-.02-.09-.05-.14-.07h-.02s-.02-.02-.02-.02l-.05-.02c-.45-.24-.91-.46-1.37-.67l-1.21-.58h0s-.07-.04-.11-.06c-.02-.01-.05-.02-.07-.03l-.03-.02h-.01s-.02,0-.02,0c-1.43-.68-2.75-1.26-4.02-1.81l-.03-.02h-.03s-.03-.02-.03-.02h-.03c-.31-.15-.61-.28-.92-.41l-.13-.05-.09-.04h-.02s0-.02,0-.02l-.55-.23c-.19-.08-.39-.16-.59-.24-.09-.04-.18-.08-.27-.11-1.36-.55-2.48-.99-3.51-1.37l-.62-.23-.08-.03-.65-.24c-1.73-.62-3.53-1.24-5.33-1.81h-.02s-.02-.02-.02-.02c-.03,0-.06-.02-.09-.03-.34-.11-.69-.22-1.03-.32-.35-.11-.71-.22-1.06-.32-.21-.06-.42-.13-.63-.19-.78-.23-1.53-.44-2.25-.64h-.04s0,0,0,0h-.02s-.03-.02-.03-.02c-.1-.03-.2-.05-.29-.08-.16-.04-.31-.08-.47-.13l-.1-.03-.14-.04c-1.49-.4-3.01-.76-4.53-1.11-.9-.21-1.79-.41-2.69-.6-1.52-.32-3.04-.65-4.57-.92-.57-.1-1.14-.2-1.71-.29h-.03s-.02,0-.02,0h-.01c-.56-.1-1.14-.19-1.71-.27-.26-.04-.53-.08-.79-.12-.33-.05-.66-.1-.99-.15-1.63-.23-3.27-.43-4.91-.6-3.17-.33-6.36-.55-9.56-.67-1.78-.07-3.56-.11-5.33-.11-2.99,0-6,.11-8.99.3-.31.02-.63.03-.95.05-3.31.23-6.61.57-9.87,1.03-.59.08-1.17.17-1.75.26-.02,0-.03,0-.05.01,0,0-.01,0-.02,0h0l-118.28,118.27v.04Z"/><path class="cls-2" d="m395.95,277.42l.02-.11.02-.11c.03-.2.06-.4.08-.6v-.05s.02-.08.02-.08l.02-.08c.04-.26.08-.53.11-.78l.02-.17.03-.18c.02-.08.02-.17.04-.24l.11-.88.08-.61c.08-.59.14-1.14.2-1.68v-.08c.07-.53.12-1.02.17-1.52.04-.42.08-.82.11-1.2v-.02l.04-.38c.03-.28.05-.56.07-.83v-.11s.02-.11.02-.11c.04-.36.06-.72.08-1.07v-.15c.05-.52.09-1.07.12-1.68v-.04c.04-.56.07-1.1.1-1.63v-.16s0-.22,0-.22v-.22c.04-.45.05-.91.07-1.36.02-.62.04-1.2.05-1.79v-.08s0-.27,0-.27c0-.42.02-.85.02-1.27v-.56c.02-.37.02-.73.02-1.09,0-.38,0-.77,0-1.14v-.4c-.4-26.92-11.19-52.17-30.37-71.09-19.21-18.94-44.64-29.37-71.62-29.37-6.23,0-12.39.56-18.43,1.65,13.96,8.44,26.04,19.74,35.53,33.34,13.76,19.71,21.03,42.88,21.03,67.01s-7.27,47.29-21.03,67.01c-13.44,19.26-32.08,33.9-53.9,42.35-13.47,5.22-27.7,7.87-42.3,7.87-21.31,0-41.77-5.66-59.65-16.25l.03.03.08.08.08.08c.08.09.17.17.26.25l.28.27c.23.23.46.45.69.67l.04.04.05.04c.38.37.83.8,1.27,1.2l.07.05.06.06c.29.27.58.55.88.82l.02.02.03.02c.51.47,1.03.94,1.56,1.4l.03.02.03.03c.34.31.68.61,1.04.91l.07.05.23.2h.02s1.01.88,1.01.88l.2.18.05.05c.27.23.54.46.82.68l.11.08.1.09c.24.21.5.42.8.66l.1.08.09.08c.21.18.43.36.63.51l.07.05.06.05c.75.61,1.54,1.22,2.33,1.82.17.14.34.27.51.4.2.15.39.3.59.44.11.08.22.16.32.24l.19.14c.31.24.63.47.95.71l.3.21c.16.11.32.23.48.34l.06.04.07.05c.23.17.47.34.71.51l.26.18c.58.41,1.17.82,1.77,1.23l.05.03.05.04c.26.18.53.36.78.53l.2.13.66.43.69.46c.35.23.72.47,1.09.7.37.24.74.47,1.1.7h.9l1.61,1.53c.24.15.5.31.75.45.49.29.98.58,1.48.85l.05.03.05.03c.39.23.78.44,1.17.66,2.09,1.18,4.2,2.3,6.32,3.34.47.24.94.46,1.4.69.07.04.14.07.21.11.44.2.88.41,1.32.62,1.33.62,2.7,1.23,4.03,1.81h.03s.03.02.03.02c.33.14.67.29,1,.43.1.04.21.08.32.14.44.18.88.37,1.33.55,1.09.44,2.27.9,3.5,1.36h.04s.04.03.04.03c.38.14.76.29,1.15.43l.05.02.05.02c1.81.66,3.6,1.27,5.32,1.81l.06.02.05.02c.35.12.69.23,1.04.34h.05s.05.02.05.02c.53.17,1.05.33,1.58.49l.44.13c.63.18,1.26.36,1.88.53.35.1.66.18.97.27l.08.02c3.9,1.05,7.87,1.94,11.78,2.63l.05.02h.05c.47.09.98.18,1.62.29h.07c.63.11,1.16.2,1.64.27h.08s.08.02.08.02c.55.09,1.1.17,1.65.24h.05c6.52.91,13.18,1.38,19.8,1.38s13.29-.46,19.81-1.37l.14-.02c.53-.08,1.04-.14,1.56-.23l.08-.02h.05s118.28-118.29,118.28-118.29c0-.07.02-.14.03-.21Z"/></svg>