<?xml version="1.0" encoding="UTF-8"?><svg id="Layer_1" xmlns="http://www.w3.org/2000/svg" viewBox="0 0 1126 140"><defs><style>.cls-1{fill:#181a31;}.cls-1,.cls-2{stroke-width:0px;}.cls-3{stroke-miterlimit:10;}.cls-3,.cls-4{fill:none;stroke:#4b535e;stroke-dasharray:0 2;}.cls-4{stroke-linejoin:round;}.cls-2{fill:#4b535e;}</style></defs><rect class="cls-1" width="1126" height="140"/><path class="cls-2" d="m32.87,123.39c-.12-.25-.18-.47-.2-.67-.01-.45-.34-1.16-.99-2.15-.04-.15-.11-.26-.19-.34s-.16-.15-.22-.21c-.06-.07-.11-.11-.16-.14l-.14-.08c-.14.24-.21.49-.22.73-.16.29-.21.51-.17.66l-.24.44c-.19.58-.5,1.26-.93,2.04l-1.33,1.72c-.35.31-.6.58-.73.83-.11.19-.18.43-.21.73-.18.66-.42,1.28-.74,1.86-1.01,1.84-2.64,3.49-4.9,4.96,1.77-.48,2.9-.87,3.38-1.17l.64-.31c3.06-1.21,5.39-2.99,6.98-5.32.4-1.29.52-2.49.37-3.58Zm-21.65-14.06c-.07-.54-.21-.87-.4-.98-.12,0-1.49,1.8-4.1,5.4-.13.24-.16.58-.08,1,.16,2.35-.02,4.74-.53,7.16l5.58-7.41c.2-1.85.04-3.57-.47-5.17Zm21.65,14.06c-.12-.25-.18-.47-.2-.67-.01-.45-.34-1.16-.99-2.15-.04-.15-.11-.26-.19-.34s-.16-.15-.22-.21c-.06-.07-.11-.11-.16-.14l-.14-.08c-.14.24-.21.49-.22.73-.16.29-.21.51-.17.66l-.24.44c-.19.58-.5,1.26-.93,2.04l-1.33,1.72c-.35.31-.6.58-.73.83-.11.19-.18.43-.21.73-.18.66-.42,1.28-.74,1.86-1.01,1.84-2.64,3.49-4.9,4.96,1.77-.48,2.9-.87,3.38-1.17l.64-.31c3.06-1.21,5.39-2.99,6.98-5.32.4-1.29.52-2.49.37-3.58Zm0,0c-.12-.25-.18-.47-.2-.67-.01-.45-.34-1.16-.99-2.15-.04-.15-.11-.26-.19-.34s-.16-.15-.22-.21c-.06-.07-.11-.11-.16-.14l-.14-.08c-.14.24-.21.49-.22.73-.16.29-.21.51-.17.66l-.24.44c-.19.58-.5,1.26-.93,2.04l-1.33,1.72c-.35.31-.6.58-.73.83-.11.19-.18.43-.21.73-.18.66-.42,1.28-.74,1.86-1.01,1.84-2.64,3.49-4.9,4.96,1.77-.48,2.9-.87,3.38-1.17l.64-.31c3.06-1.21,5.39-2.99,6.98-5.32.4-1.29.52-2.49.37-3.58Zm0,0c-.12-.25-.18-.47-.2-.67-.01-.45-.34-1.16-.99-2.15-.04-.15-.11-.26-.19-.34s-.16-.15-.22-.21c-.06-.07-.11-.11-.16-.14l-.14-.08c-.14.24-.21.49-.22.73-.16.29-.21.51-.17.66l-.24.44c-.19.58-.5,1.26-.93,2.04l-1.33,1.72c-.35.31-.6.58-.73.83-.11.19-.18.43-.21.73-.18.66-.42,1.28-.74,1.86-1.01,1.84-2.64,3.49-4.9,4.96,1.77-.48,2.9-.87,3.38-1.17l.64-.31c3.06-1.21,5.39-2.99,6.98-5.32.4-1.29.52-2.49.37-3.58Zm0,0c-.12-.25-.18-.47-.2-.67-.01-.45-.34-1.16-.99-2.15-.04-.15-.11-.26-.19-.34s-.16-.15-.22-.21c-.06-.07-.11-.11-.16-.14l-.14-.08c-.14.24-.21.49-.22.73-.16.29-.21.51-.17.66l-.24.44c-.19.58-.5,1.26-.93,2.04l-1.33,1.72c-.35.31-.6.58-.73.83-.11.19-.18.43-.21.73-.18.66-.42,1.28-.74,1.86-1.01,1.84-2.64,3.49-4.9,4.96,1.77-.48,2.9-.87,3.38-1.17l.64-.31c3.06-1.21,5.39-2.99,6.98-5.32.4-1.29.52-2.49.37-3.58Zm0,0c-.12-.25-.18-.47-.2-.67-.01-.45-.34-1.16-.99-2.15-.04-.15-.11-.26-.19-.34s-.16-.15-.22-.21c-.06-.07-.11-.11-.16-.14l-.14-.08c-.14.24-.21.49-.22.73-.16.29-.21.51-.17.66l-.24.44c-.19.58-.5,1.26-.93,2.04l-1.33,1.72c-.35.31-.6.58-.73.83-.11.19-.18.43-.21.73-.18.66-.42,1.28-.74,1.86-1.01,1.84-2.64,3.49-4.9,4.96,1.77-.48,2.9-.87,3.38-1.17l.64-.31c3.06-1.21,5.39-2.99,6.98-5.32.4-1.29.52-2.49.37-3.58Zm6.78-.99c-1.01.45-2.05,1.2-3.13,2.24l-.16.3c-.12-.01-.21.04-.26.13-.19.34-.46.6-.81.79-.62.66-1.45,1.31-2.48,1.94.1-.2.26-.36.46-.5,1.83-1.39,3.97-3.9,6.4-7.53.07-1.16-.21-2.7-.86-4.63-.13-.2-.3-.51-.48-.93-.18-.41-.29-.63-.34-.66-.21-.43-.46-.88-.76-1.36-.1-.05-.28-.28-.53-.67-.26-.39-.45-.64-.59-.74-.13-.11-.19-.22-.19-.34-.29-.16-.48-.33-.57-.51-.19-.1-.34-.25-.43-.42l-.43-.24c-.09.39-.08,1,.04,1.82-.14.24-.1.7.09,1.37.02.2.02.37,0,.52s.01.27.08.37c-.05.1-.08.23-.07.39,0,.16.01.3,0,.42-.05-.02-.07-.1-.07-.22.02-.37-.1-1-.37-1.9-.02-.08-.03-.16-.04-.26-.01-.1-.08-.26-.23-.46-.2-.99-.64-1.92-1.29-2.79.02-.05-.19-.23-.65-.54h-.18s-.4-.32-.4-.32c-.51-.22-.8-.32-.88-.29-2.03-1.12-4.43-1.4-7.19-.84-1.41.29-2.66.78-3.72,1.45.07-.59.15-1.24.22-1.95-.68-.13-1.78.27-3.3,1.2l3.02-2.59c.5-4.44.37-8.17-.38-11.16-.41,1.79-1.52,4.49-3.31,8.1l-.22,2.8-.25-2.3c-1.38,2.51-2.74,4.31-4.09,5.39.76,2.06.95,4.27.59,6.66.84-1.18,1.6-2.4,2.29-3.66.58-1.06,1.12-2.15,1.61-3.27v.19s-1.58,3.38-1.58,3.38c-1.23,2.22-3.24,5.21-6.05,8.95-2.39,2.85-4.36,5.7-5.93,8.55l-.92,1.85.1-.7c1.91-3.48,3.44-5.97,4.59-7.48.13-.25.17-.41.13-.5-.05-.09-.01-.82.12-2.2s.05-2.84-.24-4.38c-.98,1.22-1.89,2.58-2.71,4.08-.88,1.6-1.64,3.38-2.29,5.36.55,1.73.82,2.66.82,2.8-.09-.11-.41-.92-1.01-2.44-.27.83-.55,1.81-.82,2.94v12.39h10.82c-1.9-1.5-2.82-2.29-2.76-2.38l3.54,2.38h1.56c1.77-.23,2.95-.4,3.55-.51.73-.13,1.88-.3,3.44-.52l1.46-.23c-.62-.72-1.34-1.3-2.16-1.76l-.98-.44,3.29,1.05c.74.15,1.6.41,2.6.77.65-.15,1.29-.33,1.91-.56.05-.09.49-.26,1.32-.5.3-.09.59-.21.86-.37,4.24-1.64,7.43-4.42,9.58-8.34.84-1.87,1.4-3.8,1.67-5.78-.12-.13-.13-.27-.05-.41Zm-9.71,7.69c-.13.12-.29.24-.48.36-.19.11-.35.24-.49.38-.14.15-.46.35-.95.62-.49.26-.92.47-1.29.61-.36.15-.74.36-1.15.64-2.5.89-4.99,1.58-7.45,2.05l-10.17,2.35.94-.34c2.84-.58,5.3-1.15,7.37-1.71,2.07-.57,3.76-1.02,5.09-1.36.32-.14.51-.24.54-.31.04-.08.12-.16.24-.26.11-.09.21-.18.29-.26.07-.08.18-.17.32-.25s.25-.19.33-.34c.08-.14.18-.21.3-.21,1.16-1.19,1.91-2.1,2.26-2.73.42-.77.69-1.6.8-2.48-1.75,1.11-4.48,2.48-8.2,4.09-.97.28-1.98.67-3.01,1.18l-.94.33c-1.48,1.89-2.27,2.82-2.36,2.76l1.87-2.56c-4.67,1.97-8.45,3.5-11.34,4.61-.1.04-.71.19-1.54.38.13-.72.25-1.32.32-1.6.63-2.52,2.8-4.02,4.06-5.6-2.3.06-3.5.06-3.6.01.03-.05,1.32-.16,3.87-.34,1.25-1.7,2.67-3.37,4.27-5.02-1.27-.32-2.42-.35-3.44-.09,1.9-.6,3.48-.95,4.74-1.08.1-.07,1.09-1.23,2.95-3.48,1.14-1.26,2.01-2.45,2.62-3.56l1.53-3.13c-.1-.05-.12-.13-.07-.22-.98-.16-1.96-.1-2.93.18-.48.18-1.56.66-3.24,1.43l.08-.14,1.93-1.12c1.09-.72,2.64-1.25,4.66-1.59.32-.71.6-1.84.83-3.41,1.72-.38,3.63-.25,5.73.4.71.2,1.42.5,2.15.9l.97.63,1.49.73c.54.29.96.55,1.27.78l-1.46-.61c-.41-.16-.72-.24-.92-.22l.29.16c.07.23.27.43.61.62.07.22.17.37.32.45-.01.13.02.21.1.25.07.04.23.35.48.92.07.11.14.33.2.68.65,1.11.72,2.47.21,4.08,2.05,1.88,2.68,4.46,1.88,7.74l.67-1.05c1.73-3.14,1.95-6.58.66-10.3l.15.07c.53,1.56.76,3.19.7,4.92.02.07.02.16.01.24-.02.09-.05.28-.08.57l-.13,1.26c-.05.91-.52,2.16-1.4,3.76-.98,1.79-2.14,3.2-3.46,4.23Zm2.93-6.7c-.12-.25-.18-.47-.2-.67-.01-.45-.34-1.16-.99-2.15-.04-.15-.11-.26-.19-.34s-.16-.15-.22-.21c-.06-.07-.11-.11-.16-.14l-.14-.08c-.14.24-.21.49-.22.73-.16.29-.21.51-.17.66l-.24.44c-.19.58-.5,1.26-.93,2.04l-1.33,1.72c-.35.31-.6.58-.73.83-.11.19-.18.43-.21.73-.18.66-.42,1.28-.74,1.86-1.01,1.84-2.64,3.49-4.9,4.96,1.77-.48,2.9-.87,3.38-1.17l.64-.31c3.06-1.21,5.39-2.99,6.98-5.32.4-1.29.52-2.49.37-3.58Zm0,0c-.12-.25-.18-.47-.2-.67-.01-.45-.34-1.16-.99-2.15-.04-.15-.11-.26-.19-.34s-.16-.15-.22-.21c-.06-.07-.11-.11-.16-.14l-.14-.08c-.14.24-.21.49-.22.73-.16.29-.21.51-.17.66l-.24.44c-.19.58-.5,1.26-.93,2.04l-1.33,1.72c-.35.31-.6.58-.73.83-.11.19-.18.43-.21.73-.18.66-.42,1.28-.74,1.86-1.01,1.84-2.64,3.49-4.9,4.96,1.77-.48,2.9-.87,3.38-1.17l.64-.31c3.06-1.21,5.39-2.99,6.98-5.32.4-1.29.52-2.49.37-3.58Zm0,0c-.12-.25-.18-.47-.2-.67-.01-.45-.34-1.16-.99-2.15-.04-.15-.11-.26-.19-.34s-.16-.15-.22-.21c-.06-.07-.11-.11-.16-.14l-.14-.08c-.14.24-.21.49-.22.73-.16.29-.21.51-.17.66l-.24.44c-.19.58-.5,1.26-.93,2.04l-1.33,1.72c-.35.31-.6.58-.73.83-.11.19-.18.43-.21.73-.18.66-.42,1.28-.74,1.86-1.01,1.84-2.64,3.49-4.9,4.96,1.77-.48,2.9-.87,3.38-1.17l.64-.31c3.06-1.21,5.39-2.99,6.98-5.32.4-1.29.52-2.49.37-3.58Zm0,0c-.12-.25-.18-.47-.2-.67-.01-.45-.34-1.16-.99-2.15-.04-.15-.11-.26-.19-.34s-.16-.15-.22-.21c-.06-.07-.11-.11-.16-.14l-.14-.08c-.14.24-.21.49-.22.73-.16.29-.21.51-.17.66l-.24.44c-.19.58-.5,1.26-.93,2.04l-1.33,1.72c-.35.31-.6.58-.73.83-.11.19-.18.43-.21.73-.18.66-.42,1.28-.74,1.86-1.01,1.84-2.64,3.49-4.9,4.96,1.77-.48,2.9-.87,3.38-1.17l.64-.31c3.06-1.21,5.39-2.99,6.98-5.32.4-1.29.52-2.49.37-3.58Zm0,0c-.12-.25-.18-.47-.2-.67-.01-.45-.34-1.16-.99-2.15-.04-.15-.11-.26-.19-.34s-.16-.15-.22-.21c-.06-.07-.11-.11-.16-.14l-.14-.08c-.14.24-.21.49-.22.73-.16.29-.21.51-.17.66l-.24.44c-.19.58-.5,1.26-.93,2.04l-1.33,1.72c-.35.31-.6.58-.73.83-.11.19-.18.43-.21.73-.18.66-.42,1.28-.74,1.86-1.01,1.84-2.64,3.49-4.9,4.96,1.77-.48,2.9-.87,3.38-1.17l.64-.31c3.06-1.21,5.39-2.99,6.98-5.32.4-1.29.52-2.49.37-3.58Z"/><path class="cls-2" d="m76.31,53.64l8.25,51.56c.07.46-.04.92-.32,1.29h0c-.68.91-2.03.93-2.73.04l-.25-.32c-1.09-1.4-2.76-3-5.01-4.81-2.25-1.81-5.07-3.43-8.47-4.86-3.4-1.43-7.4-2.24-12-2.44-4.28-.19-9.1.53-14.45,2.14-.7.21-1.46-.03-1.89-.62l-11.94-16.26c-.6-.81-.37-1.97.5-2.49,1.27-.76,3.28-1.96,6.03-3.61,5.07-3.02,10.51-6.1,16.32-9.25,4.97-2.69,8.87-4.54,11.72-5.54.79-.28,1.26-1.07,1.13-1.89l-.13-.81c-.15-.94-1.03-1.57-1.97-1.42l-42.12,6.74c-.94.15-1.82-.49-1.97-1.42l-1.11-6.92c-.15-.94.49-1.82,1.42-1.97l65.15-10.42c.94-.15,1.82.49,1.97,1.42l1.11,6.92c.15.94-.49,1.82-1.42,1.97l-6.39,1.02c-.94.15-1.57,1.03-1.42,1.97Zm-6.33,36.58l-2.39-14.91c-.17-1.07-1.29-1.71-2.31-1.34-3.15,1.17-5.75,2.31-7.81,3.44-2.47,1.35-4.27,2.48-5.4,3.39-.03,0-.05.02-.04.06-.03,0-.06.03-.09.06l-.18.13h-.05c-.71.59-1.14.94-1.29,1.06,0,.03,0,.05-.04.06,3.02.89,5.96,2,8.83,3.35,2.87,1.34,5.27,2.57,7.18,3.66h.05s0,.04,0,.04c.04.03.09.05.16.07l.06.04h.05c.04.05.1.09.17.12.08.06.17.11.28.16v.05s.06,0,.06,0l.06.04h.05s0,.04,0,.04h.05s0,.04,0,.04c.07.02.14.06.22.12h.05s0,.04,0,.04c.03,0,.07,0,.11.03l.11.08h.05s0,.04,0,.04h.05s0,.04,0,.04h.05s.11.07.11.07c.03,0,.05,0,.06.04.48.29.79.47.94.55.03,0,.05,0,.06.04h.05s.7-.62.7-.62Z"/><path class="cls-3" d="m72.17,0c.35,7.59,2.74,13.39,3.33,23.5.58,10.02-.64,18.92-7,21"/><path class="cls-2" d="m96.91,18.41l26.53,5.64c.9.19,1.48,1.08,1.29,1.98l-.97,4.54-1.03-.22-5.76,27.08c-.24,1.13-1.52,1.68-2.5,1.08l-2.75-1.67c-.61-.37-.92-1.08-.77-1.78l3.22-15.14c.19-.9-.38-1.79-1.29-1.98l-12.42-2.64c-.9-.19-1.79.38-1.98,1.29l-.78,3.67c-.15.7.17,1.42.79,1.79l6.39,3.75.04-.18c.14-.66-.13-1.34-.69-1.72l-.15-.11c-.56-.38-.83-1.06-.69-1.72l.58-2.73c.24-1.11,1.48-1.67,2.47-1.1l4.52,2.59c.63.36.96,1.09.8,1.8l-2.17,10.19c-.24,1.11-1.49,1.67-2.47,1.1l-15.34-8.86c-.63-.36-.95-1.09-.8-1.8l2.96-13.9c.19-.9,1.08-1.48,1.98-1.29l.42.09c1.46.31,2.57-1.31,1.74-2.56h0c-.24-.36-.62-.62-1.05-.71l-1.45-.31c-.9-.19-1.48-1.08-1.29-1.98l.62-2.91c.19-.9,1.08-1.48,1.98-1.29Zm12.09,12.01h0c.24.34.6.57,1,.65l4.16.88c.9.19,1.79-.38,1.98-1.29h0c.19-.9-.38-1.79-1.29-1.98l-4.16-.88c-1.5-.32-2.6,1.38-1.7,2.62Z"/><path class="cls-4" d="m98.59,0c-2.4,3.53-1.19,8.56-.09,10.5,1.12,1.98,13.14,3.64,8,11"/><path class="cls-2" d="m159.15,89.09l.26-.95c.16-.58.75-.92,1.33-.76l4.37,1.19c.58.16.92.75.76,1.33l-.26.95c-.16.58.18,1.17.76,1.33l.32.09c.58.16.92.75.76,1.33l-.55,2.01c-.16.58-.75.92-1.33.76l-.32-.09c-.58-.16-1.17.18-1.33.76l-7.77,28.59c-.16.58-.75.92-1.33.76l-4.37-1.19c-.58-.16-.92-.75-.76-1.33l7.77-28.59c.16-.58-.18-1.17-.76-1.33l-1.72-.47c-.58-.16-1.17.18-1.33.76l-6.47,23.82c-.16.58-.75.92-1.33.76l-4.37-1.19c-.58-.16-.92-.75-.76-1.33l.85-3.14c.03-.1.04-.21.04-.32-.01-2.22-.53-4.07-1.55-5.53-.39-.55-1.21-.6-1.67-.11-3.55,3.86-8.02,5.89-13.43,6.09-3.02.04-5.41-.17-7.18-.66-6.92-1.88-11.16-6.54-12.73-13.97-.05-.19-.07-.33-.04-.42.06-.09.1-.13.14-.12l.04.06c2.48,3.85,5.94,6.38,10.37,7.58,7.24,1.97,14.05.14,20.45-5.48,1.66-1.52,2.84-3.6,3.56-6.23.5-1.83.35-3.05-.46-3.65-1.48-1.16-2.88-1.92-4.2-2.28-4.73-1.29-8.77.07-12.14,4.06,0,0-.01.02-.02.02-.75.91.38,2.17,1.4,1.58,1.2-.71,2.41-1.25,3.62-1.62.4-.12.83,0,1.11.31.86.95,1.65,2.64,2.37,5.07.16.54-.14,1.1-.66,1.31-3.67,1.45-6.11,3-7.31,4.67-.45.62-1.4.53-1.8-.11-1.32-2.1-2.01-3.67-2.07-4.72,0-.15.02-.29.08-.43l.26-.68c-1.5-3.51-1.94-6.41-1.32-8.7.35-1.31.85-2.45,1.5-3.42.37-.55.14-1.29-.46-1.57-.21-.1-.45-.18-.7-.25l-8.56-2.32c-.58-.16-.92-.75-.76-1.33l.55-2.01c.16-.58.75-.92,1.33-.76l8.8,2.39c1.47.4,2.62,1.04,3.46,1.94.29.31.75.37,1.15.23,1.12-.41,2.38-.67,3.76-.77,1.33-.09,2.58.03,3.74.34l1.06.29c2.05.56,3.82,1.87,5.29,3.95.27.38.75.58,1.2.43,1.19-.39,2.53-.38,4.02.02l14.01,3.8c.58.16,1.17-.18,1.33-.76Zm-11.96,3.4c.16-.58-.18-1.17-.76-1.33l-3.49-.95c-.09-.03-.18-.05-.27-.07-.82-.18-1.52.59-1.27,1.38.44,1.36.83,2.85,1.16,4.49.27,1.4.16,3-.32,4.81-.01.05-.03.1-.05.14l-.16.42c-.17.43-.05.93.31,1.22.12.1.24.2.36.31.61.56,1.58.33,1.8-.47l2.7-9.95Z"/><path class="cls-2" d="m176.7,53.81c.3.25.49.62.53,1.01l.05.47c.3,3.01-.81,5.54-3.31,7.58-1.87,1.38-3.98,2.19-6.35,2.42-2.01.2-4.01-.03-6-.7-3.04-1.08-5.08-2.87-6.1-5.37-.41-.97-.71-2.06-.91-3.26-.2-1.2-.37-2.54-.51-4.01l-.38-3.86c-.08-.83-.82-1.44-1.65-1.36h0c-.83.08-1.57-.53-1.65-1.36l-.22-2.28c-.08-.83.53-1.57,1.36-1.65l5.25-.52c.83-.08,1.57.53,1.65,1.36l.81,8.23c.33,3.4.73,5.65,1.19,6.75.46,1.1,1.44,1.87,2.94,2.32,1.24.42,2.47.58,3.71.45,1.39-.14,2.59-.58,3.61-1.33.55-.44.93-.95,1.14-1.52l-.35.03c-2.19.22-3.94.04-5.26-.53-1.32-.57-2.3-1.27-2.96-2.09-1.11-1.27-1.76-2.82-1.94-4.65l-.04-.39c-.05-1.27.11-2.53.48-3.79l.3-.89c.04-.08.09-.18.13-.29.59-1.38,1.35-2.52,2.28-3.42.38-.37.77-.69,1.17-.96.2-.14.44-.21.69-.24l2.6-.26v.04s16.07-1.58,16.07-1.58c.83-.08,1.57.53,1.65,1.36l.22,2.2c.08.83-.53,1.57-1.36,1.65l-13.29,1.31.08.03c1.94.46,4.06.73,6.36.82,1.15-.02,2.44-.07,3.86-.15.81-.05,1.52.55,1.6,1.36l1.48,15.07c.08.83-.53,1.57-1.36,1.65l-2.28.22c-.83.08-1.57-.53-1.65-1.36l-1-10.16c-.07-.76-.71-1.34-1.46-1.36-.37-.01-.72-.03-1.05-.06l-.75-.04c-3.76-.41-6.9-1.18-9.43-2.31-.04.39-.04.77,0,1.13.06.62.25,1.13.58,1.54.42.56.96.99,1.63,1.3.67.31,1.79.38,3.35.2.28-.03.57-.15.87-.37.55-.4,1.31-.35,1.83.09l1.79,1.5Z"/><path class="cls-3" d="m142.03,0c2.75,8.32,2.63,14.81,1.72,19.64-2.01,10.65-8.18,14.84-6.78,24.48,1.26,8.68,6.97,10.19,9.69,19.38,2.61,8.85.4,17.91-2.91,25.5"/><path class="cls-2" d="m1125.46,74.01c-10.49-12.21-24.11-21.43-39.74-26.71-6.7-2.25-13.54-3.72-20.47-4.38-4.15-.4-8.34-.51-12.53-.32-13.85.61-27.23,4.35-39.3,10.9-3.71,2.02-7.31,4.29-10.75,6.84-14.98,11.06-26.06,26.26-32.03,43.97-3.92,11.62-5.44,23.7-4.55,35.69h-41.99c-5.76-16.21-6.05-33.78-.71-50.39l.09-.28.11-.33c.03-.1.06-.2.1-.3.02-.07.04-.15.07-.22.02-.07.05-.14.07-.21.04-.11.07-.21.11-.31l.12-.34h0s.03-.09.03-.09l.07-.19c.11-.34.23-.66.35-1l.05-.14c.02-.06.04-.13.07-.19.14-.41.29-.8.45-1.22.03-.1.07-.19.11-.29.09-.23.17-.46.26-.69l.03-.06v-.02l.03-.06s.03-.09.05-.13c.01-.03.02-.05.03-.07v-.04s.02-.02.02-.02v-.02c.09-.21.17-.41.25-.61.08-.19.15-.39.23-.58v-.02h0c.18-.46.35-.85.51-1.23.02-.05.04-.1.06-.15.05-.11.1-.22.14-.34.04-.08.08-.17.12-.26.02-.06.05-.12.07-.18.05-.11.1-.22.15-.34.05-.11.09-.22.14-.32l.12-.27v-.03c.14-.28.26-.56.38-.83.16-.36.33-.72.5-1.08h.01s.01-.02.01-.02h0c.05-.13.11-.24.16-.35.14-.31.28-.61.42-.9.16-.33.32-.66.48-.99l.03-.04h0s.03-.08.03-.08l.05-.1.02-.04.02-.04h.01l.03-.08.03-.05.14-.27c.05-.1.1-.2.15-.3.01-.04.03-.07.05-.1h0s.01-.02.01-.02h0c.08-.19.17-.36.26-.52l.06-.13.05-.09.02-.02,116.1-57.5h.05c.45.08.9.16,1.35.25,2.51.47,5.01,1.04,7.5,1.69.24.06.47.13.71.19,2.24.61,4.47,1.27,6.67,2.01,1.3.44,2.6.91,3.89,1.4,2.31.88,4.6,1.84,6.85,2.86,1.16.54,2.32,1.09,3.45,1.66.23.11.46.23.7.35.18.1.36.19.55.28.4.21.79.42,1.18.63h.03s.02.02.02.02c.4.21.79.42,1.18.64,1.05.58,2.09,1.19,3.12,1.8.62.37,1.23.74,1.83,1.11,1.03.64,2.06,1.28,3.05,1.94l.09.07.07.04c.1.07.21.14.31.21.07.04.13.09.2.13h.01s.02.02.02.02h0s.03.02.03.02c.47.32.97.66,1.49,1.03.14.1.27.19.41.29.24.17.47.34.7.5.23.17.45.33.68.5.02.01.04.02.06.04h.01s.02.02.02.02c1.18.87,2.35,1.77,3.46,2.65l.41.34.06.04.39.33c.66.53,1.38,1.13,2.24,1.87.06.05.12.1.17.15.13.11.25.22.38.32l.34.31h.01l.06.06.09.07c.19.18.38.35.57.52l.02.02h.02s.02.03.02.03l.02.02c.8.71,1.62,1.47,2.5,2.32h.02v.02l.02.02s.03.02.05.04c.02.02.04.04.06.06h0s.75.73.75.73c.29.27.57.55.84.83l.14.14c1.25,1.26,2.49,2.56,3.68,3.88.02.02.04.04.06.06.17.19.35.4.53.6.06.07.13.15.2.22l.14.17c.19.22.38.44.57.65.05.06.1.12.15.17v.02h.02v.02c.09.09.17.19.25.28.07.08.13.15.2.23l.42.5c.27.31.53.63.78.94l.04.05.03.03c.26.31.51.62.75.93l.03.03.02.04c.17.2.34.41.5.62l.15.18.02.03v.02h.02s.02.04.03.05c.23.29.46.59.69.88h.01v.02s.08.1.11.14c.15.2.3.4.45.6l.02.02h.01c.34.46.66.91.99,1.36l.04.04.03.05s.07.09.1.14c.13.18.27.36.4.56h.01s.01.01.01.01v.02h.01l.13.19c.07.09.13.18.2.27.03.05.07.1.1.15l.34.48.09.13.24.35.03.03v.02s.02.02.02.02h.01s.01.03.02.04c.02.02.04.05.06.08l.08.13.15.21c.12.18.23.35.35.53h0s.01.03.01.03c.44.64.87,1.3,1.27,1.94h.01s.01.02.01.02v.02c.14.2.27.4.4.6l.02.03v.03s.02.02.02.02l.03.04c.17.27.34.53.51.81l.06.1.12.19h0s.15.27.15.27l.29.47c.15.24.29.48.43.72.07.11.14.23.21.34.2.35.41.7.62,1.07.18.32.37.65.55.98.03.05.06.1.08.15l.17.29.02.05c.13.23.26.46.38.69.02.04.04.07.06.1l.03.05v.02s.02.03.02.03c.12.21.22.41.33.61.1.2.21.4.31.58v.03s.02.03.02.03l.03.04h0c.04.08.07.14.1.21.12.21.23.43.34.64.08.16.17.33.25.49,0,0,.01.02.01.03Z"/><path class="cls-2" d="m1126,95.44v44.56h-40.46c5.12-16.88,5.22-34.66.28-51.6-3.59-12.33-9.66-23.62-17.82-33.27,4.71.69,9.37,1.81,13.94,3.35,18.96,6.41,34.52,19.47,44.06,36.96Z"/><path class="cls-3" d="m172.27,0c-1.57,4.81-3.32,11.84-1.77,16.5,3.71,11.12,10,15,8,24"/></svg>
